<svg width="71" height="70" viewBox="0 0 71 70" fill="none" xmlns="http://www.w3.org/2000/svg">
<path d="M36.66 0C37.1363 0.0497893 37.6104 0.110405 38.0888 0.151535C42.0026 0.482742 45.7477 1.46337 49.3347 3.05663C59.4765 7.55931 66.9795 16.7963 69.2828 27.62C69.9777 30.891 70.2375 34.1944 69.9799 37.5281C69.4798 44.0267 67.3562 49.9473 63.6004 55.2791C63.2432 55.7856 62.8059 56.1688 62.2019 56.3355C60.7407 56.7403 59.2167 55.764 58.9635 54.2616C58.8228 53.4282 59.0133 52.677 59.4938 51.9843C61.0156 49.7936 62.2236 47.4427 63.1111 44.9272C63.9142 42.6499 64.4619 40.3141 64.6654 37.9069C65.4296 28.9081 62.7496 21.0652 56.5757 14.4843C52.3155 9.9427 47.0487 7.11121 40.9419 5.85349C38.8486 5.4227 36.7336 5.21055 34.5992 5.26683C27.0009 5.46166 20.3616 8.09184 14.7852 13.2591C9.99249 17.7012 7.00297 23.1823 5.81235 29.603C4.01778 39.2664 7.09389 49.1009 14.0059 56.0107C18.3701 60.3727 23.6023 63.1176 29.6614 64.2541C34.084 65.0832 38.4828 64.8927 42.8296 63.7173C43.6717 63.49 44.4748 63.5159 45.2411 63.9489C46.7738 64.8148 47.0443 66.9189 45.7801 68.0857C45.4944 68.3477 45.161 68.5187 44.7908 68.6247C43.0937 69.1161 41.3705 69.4733 39.6193 69.7071C37.7208 69.9604 35.8158 70.0427 33.9021 69.9799C29.1354 69.824 24.5851 68.7352 20.2642 66.7219C10.4168 62.1305 3.30774 53.2875 0.900536 42.6434C0.517376 40.9506 0.2641 39.2361 0.149368 37.5021C0.129885 37.2164 0.051954 36.9328 0 36.6471C0 35.569 0 34.4888 0 33.4108C0.051954 33.112 0.12772 32.8133 0.149368 32.5124C0.2641 30.8542 0.504387 29.2133 0.857241 27.5897C3.31207 16.2768 11.2199 6.88391 21.9268 2.57172C25.1782 1.26205 28.5444 0.44161 32.0405 0.149368C32.5016 0.110403 32.9626 0.0497893 33.4237 0C34.5018 0 35.582 0 36.66 0Z" fill="#203D74"/>
<path d="M35.054 11.668C42.2669 11.8282 48.2676 14.5774 52.9954 20.0672C53.8895 21.1041 53.8808 22.2558 53.3613 23.1801C52.7811 24.2127 51.5883 24.7842 50.3977 24.6153C49.4756 24.4855 48.7244 24.0525 48.1096 23.3641C46.8562 21.9614 45.4166 20.7859 43.7823 19.8529C41.4292 18.5086 38.9007 17.7466 36.1926 17.5648C27.9428 17.0062 20.1497 22.4181 18.0629 30.8801C16.1276 38.736 19.9484 46.9989 27.1894 50.6226C30.0448 52.0514 33.0711 52.6943 36.2489 52.4497C41.3512 52.0579 45.527 49.8455 48.7655 45.8754C48.9409 45.661 49.0967 45.4272 49.2915 45.2346C50.2635 44.2713 51.4022 43.8362 52.7551 44.2669C54.1666 44.715 54.9935 46.2001 54.593 47.5444C54.5043 47.8453 54.3506 48.1418 54.1666 48.3973C50.7224 53.2225 46.118 56.3398 40.3555 57.7295C37.8985 58.3227 35.4025 58.4958 32.8871 58.2404C27.4795 57.6927 22.7842 55.5648 18.8617 51.7916C15.5279 48.5856 13.3545 44.7064 12.3133 40.1994C10.601 32.7873 12.6661 24.9054 17.8031 19.3074C21.4269 15.3589 25.8971 12.9387 31.1704 12.0013C32.452 11.774 33.7465 11.6745 35.054 11.668Z" fill="#203D74"/>
<path d="M48.5882 38.5065C47.2027 38.5065 45.8173 38.487 44.4318 38.5108C42.6611 38.5433 41.0851 37.1622 40.9055 35.3481C40.7301 33.6034 41.9467 31.9127 43.6677 31.5793C43.9383 31.5274 44.2175 31.4992 44.4925 31.4971C47.233 31.4906 49.9736 31.4884 52.7163 31.4949C54.4265 31.4992 55.8076 32.5729 56.2038 34.19C56.732 36.3331 55.1235 38.4567 52.9177 38.4957C51.4759 38.526 50.0321 38.5044 48.5882 38.5065Z" fill="#203D74"/>
<path d="M53.794 57.4309C54.5603 57.4352 55.4543 57.8119 56.1406 58.602C57.0476 59.6476 57.9438 60.6997 58.8075 61.7799C60.4397 63.8234 59.3812 66.8216 56.8246 67.3823C55.5323 67.6658 54.3784 67.3173 53.4931 66.3259C52.5514 65.2738 51.64 64.1914 50.7698 63.0809C49.8823 61.9487 49.7784 60.6802 50.3845 59.3813C50.9495 58.1756 52.1661 57.4396 53.794 57.4309Z" fill="#203D74"/>
</svg>
